<svg id="logo" viewBox="0 0 100 30" xmlns="http://www.w3.org/2000/svg"><title>Helpling Logo</title><g fill="currentColor" fill-rule="evenodd"><path d="M15.716.292L13.81 9.087c-.216-.03-.463-.03-.678-.03-.983 0-2.028.21-3.075.392l2-9.155c-.4-.03-.8-.06-1.23-.06C5.69.233.032 4.058.032 8.063c0 2.168 1.168 2.92 3.29 2.92-.032-.27-.43-.512-.43-2.048 0-3.191 1.6-5.48 4.304-6.595L2.74 22.819h4.429l2.46-11.354c.492-.06 1.075-.12 1.66-.12.646 0 1.292.06 1.968.3L10.825 22.82h4.429L20.144.293h-4.428zm31.029 6.924c-.769 0-1.506.212-2.152.542l.123-.572h-4.428L37.92 18.12c-.875.727-1.788 1.384-2.554 1.384-1.2 0-1.537-.452-1.537-1.114 0-.241.061-.513.154-.963l3.536-16.263-4.551.6-3.203 14.69c-1.164 2.057-3.554 3.622-4.979 3.622-1.2 0-2.521-.604-2.521-2.591 0-.36.03-.813.091-1.295 2.923-.361 6.95-2.469 6.95-6.143 0-2.108-1.415-3.132-3.936-3.132-5.596 0-7.258 6.715-7.258 10.54 0 2.59 1.6 4.787 4.552 4.787 2.741 0 4.996-1.45 6.707-3.37l-.001.089c0 2.259 1.445 3.282 3.812 3.282 1.313 0 2.947-1.198 4.388-2.51l-2.172 10.04 4.643-1.084 1.6-7.38c.922.573 1.875.904 2.89.904 3.138 0 5.782-2.198 6.734-8.673a13.52 13.52 0 0 0 .185-2.108c0-3.102-1.508-4.216-4.705-4.216v.001zm-20.36 1.295c.922 0 1.075 1.054 1.075 1.687-.03 2.137-2.029 4.517-4.858 4.547.647-2.83 2.06-6.234 3.783-6.234zm20.944 5.39c-1.014 4.789-1.753 6.084-3.29 6.084-.492 0-1.261 0-2-.543l2.216-10.118c.582-.392 1.167-.633 1.751-.633.985 0 1.724.363 1.724 2.169 0 .723-.125 1.716-.4 3.041h-.001zM66.22 5.95c1.353 0 2.46-1.054 2.46-2.379s-1.108-2.409-2.46-2.409a2.416 2.416 0 0 0-2.43 2.41c0 1.324 1.078 2.38 2.43 2.38V5.95z"/><path d="M94.475 7.186l-.309 1.445a2.868 2.868 0 0 0-2.46-1.415c-5.966 0-7.596 7.228-7.596 11.384 0 .196.013.395.034.595a1.962 1.962 0 0 1-1.08.308c-1.2 0-1.538-.452-1.538-1.114 0-.3.062-.633.154-.963l1.26-5.752c.063-.242.063-.483.063-.724 0-2.018-1.877-3.764-3.538-3.764-1.353 0-2.767.723-4.028 1.625l.37-1.625h-4.43L68.94 18.451c-.746.584-1.496 1.052-2.145 1.052-1.23 0-1.538-.482-1.538-1.144 0-.272.062-.603.123-.934l2.215-10.239h-4.429l-2.215 10.239c-.055.258-.1.517-.132.779-.844.694-1.714 1.3-2.45 1.3-1.2 0-1.539-.453-1.539-1.115 0-.241.063-.513.154-.963L60.52 1.163l-4.55.6-3.414 15.66a7.354 7.354 0 0 0-.185 1.538c0 2.258 1.445 3.282 3.813 3.282 1.382 0 3.121-1.33 4.617-2.722.231 1.868 1.649 2.721 3.81 2.721 1.188 0 2.636-.98 3.97-2.137l-.462 2.137h4.427l2.614-12.166c.646-.421 1.2-.632 1.938-.632.83 0 1.415.692 1.415 1.777 0 .24-.032.511-.093.783l-1.169 5.42a7.171 7.171 0 0 0-.185 1.537c0 2.258 1.415 3.282 3.814 3.282 1.239 0 2.463-.868 3.55-1.898.466 1.15 1.506 2.078 3.494 2.078 1.415 0 2.613-.542 3.537-1.264l-.37 1.625c-2.86.542-5.136.995-5.136 3.735 0 1.957 1.754 3.252 3.63 3.252 2.03 0 4.674-.812 5.596-5.12l3.752-17.463h-4.458v-.002zm-3.784 17.556c-.4 1.778-1.167 2.35-1.814 2.35-.676 0-1.23-.572-1.23-.994 0-1.625 1.322-2.018 3.26-2.348l-.216.992zm1.23-5.81c-.585.57-1.2.993-1.784.993-1.353 0-2.245-.453-2.245-1.898 0-2.59 1.17-9.125 4.152-9.125.523 0 1.292.392 1.784 1.296L91.92 18.93z"/></g></svg>