<svg xmlns="http://www.w3.org/2000/svg" viewBox="0 0 359.96 190.95"><defs><style>.cls-1{fill:#002868;}.cls-2{fill:#fff;}.cls-3{fill:#c00;}</style></defs><title>classic-garden-elements-co-uk</title><g id="Layer_2" data-name="Layer 2"><g id="Layer_9" data-name="Layer 9"><g id="g578"><rect id="rect124" class="cls-1" y="0.5" width="359.45" height="189.19"/><g id="g584"><path id="path146" class="cls-2" d="M0,.25V21.46L319.71,189.94H360V168.73L40.24.25ZM359.7,0V21.3L40.22,190.53H0v-21.3L319.49,0Z"/><path id="path136" class="cls-2" d="M149.88.25V191h60V.25ZM0,63.57v63.06H359.7V63.57Z"/><path id="path141" class="cls-3" d="M0,76.18V114H359.45V76.18ZM161.75.5V189.69H197.7V.5Z"/><path id="path150" class="cls-3" d="M0,189.69l119.82-63.06h26.79L26.79,189.69ZM0,.5,119.82,63.57H93l-93-49ZM212.84,63.57,332.66.5h26.79L239.63,63.57ZM359.45,189.69,239.63,126.63h26.8l93,49Z"/></g></g></g></g></svg>